<svg xmlns="http://www.w3.org/2000/svg" viewBox="0 0 300.48 207.88">
  <defs><style>.cls-1{fill:#1e1e1e;}.cls-2{fill:#fff;}</style></defs><title>Asset 5</title><g id="Layer_2" data-name="Layer 2"><g id="Layer_2-2" data-name="Layer 2"><path class="cls-1" d="M150.24,41H299.48a1,1,0,0,0,.25-2L154.77,1,151.15.11a3.74,3.74,0,0,0-1.82,0L145.71,1,.75,39A1,1,0,0,0,1,41Z"/><path class="cls-1" d="M12.48,48.2,16,54.62a1.79,1.79,0,0,0,1.56.65H282.91a1.76,1.76,0,0,0,1.56-.66L288,48.2c.34-.61-.45-1.22-1.56-1.22H14C12.93,47,12.14,47.59,12.48,48.2Z"/><path class="cls-1" d="M57.6,126.55l9,79.5a1.31,1.31,0,0,0,1.32,1.17H232.54a1.32,1.32,0,0,0,1.33-1.17l9-79.5a1.31,1.31,0,0,0-1.33-1.44H58.92A1.31,1.31,0,0,0,57.6,126.55Z"/><rect class="cls-2" x="52.34" y="83.92" width="195.8" height="25.02"/><path class="cls-1" d="M241,207.88h39.08a1.28,1.28,0,0,0,1.27-1.41l-8.42-76.17c0-.05,0-.1,0-.14V61.88a1.27,1.27,0,0,0-1.27-1.27H249.42a1.27,1.27,0,0,0-1.27,1.27V95.29h0v14.2a1.27,1.27,0,0,1-1.27,1.28H53.61a1.27,1.27,0,0,1-1.27-1.28V95.29h0V61.88a1.27,1.27,0,0,0-1.27-1.27H28.83a1.27,1.27,0,0,0-1.27,1.27v68.28s0,.09,0,.14l-8.41,76.17a1.26,1.26,0,0,0,1.26,1.41H59.49a1.28,1.28,0,0,0,1.26-1.41L52.34,130.3a.71.71,0,0,1,0-.14v-9.74a1.28,1.28,0,0,1,1.28-1.28H246.88a1.27,1.27,0,0,1,1.27,1.28v9.74a.71.71,0,0,1,0,.14l-8.41,76.17A1.28,1.28,0,0,0,241,207.88Z"/></g></g>
</svg>
